%TF.GenerationSoftware,KiCad,Pcbnew,9.0.7*%
%TF.CreationDate,2026-05-05T17:37:21-07:00*%
%TF.ProjectId,Card,43617264-2e6b-4696-9361-645f70636258,rev?*%
%TF.SameCoordinates,Original*%
%TF.FileFunction,Copper,L1,Top*%
%TF.FilePolarity,Positive*%
%FSLAX46Y46*%
G04 Gerber Fmt 4.6, Leading zero omitted, Abs format (unit mm)*
G04 Created by KiCad (PCBNEW 9.0.7) date 2026-05-05 17:37:21*
%MOMM*%
%LPD*%
G01*
G04 APERTURE LIST*
G04 Aperture macros list*
%AMRoundRect*
0 Rectangle with rounded corners*
0 $1 Rounding radius*
0 $2 $3 $4 $5 $6 $7 $8 $9 X,Y pos of 4 corners*
0 Add a 4 corners polygon primitive as box body*
4,1,4,$2,$3,$4,$5,$6,$7,$8,$9,$2,$3,0*
0 Add four circle primitives for the rounded corners*
1,1,$1+$1,$2,$3*
1,1,$1+$1,$4,$5*
1,1,$1+$1,$6,$7*
1,1,$1+$1,$8,$9*
0 Add four rect primitives between the rounded corners*
20,1,$1+$1,$2,$3,$4,$5,0*
20,1,$1+$1,$4,$5,$6,$7,0*
20,1,$1+$1,$6,$7,$8,$9,0*
20,1,$1+$1,$8,$9,$2,$3,0*%
%AMFreePoly0*
4,1,14,0.334644,0.085355,0.385355,0.034644,0.400000,-0.000711,0.400000,-0.050000,0.385355,-0.085355,0.350000,-0.100000,-0.350000,-0.100000,-0.385355,-0.085355,-0.400000,-0.050000,-0.400000,0.050000,-0.385355,0.085355,-0.350000,0.100000,0.299289,0.100000,0.334644,0.085355,0.334644,0.085355,$1*%
%AMFreePoly1*
4,1,14,0.385355,0.085355,0.400000,0.050000,0.400000,0.000711,0.385355,-0.034644,0.334644,-0.085355,0.299289,-0.100000,-0.350000,-0.100000,-0.385355,-0.085355,-0.400000,-0.050000,-0.400000,0.050000,-0.385355,0.085355,-0.350000,0.100000,0.350000,0.100000,0.385355,0.085355,0.385355,0.085355,$1*%
%AMFreePoly2*
4,1,14,0.085355,0.385355,0.100000,0.350000,0.100000,-0.350000,0.085355,-0.385355,0.050000,-0.400000,-0.050000,-0.400000,-0.085355,-0.385355,-0.100000,-0.350000,-0.100000,0.299289,-0.085355,0.334644,-0.034644,0.385355,0.000711,0.400000,0.050000,0.400000,0.085355,0.385355,0.085355,0.385355,$1*%
%AMFreePoly3*
4,1,14,0.034644,0.385355,0.085355,0.334644,0.100000,0.299289,0.100000,-0.350000,0.085355,-0.385355,0.050000,-0.400000,-0.050000,-0.400000,-0.085355,-0.385355,-0.100000,-0.350000,-0.100000,0.350000,-0.085355,0.385355,-0.050000,0.400000,-0.000711,0.400000,0.034644,0.385355,0.034644,0.385355,$1*%
%AMFreePoly4*
4,1,14,0.385355,0.085355,0.400000,0.050000,0.400000,-0.050000,0.385355,-0.085355,0.350000,-0.100000,-0.299289,-0.100000,-0.334644,-0.085355,-0.385355,-0.034644,-0.400000,0.000711,-0.400000,0.050000,-0.385355,0.085355,-0.350000,0.100000,0.350000,0.100000,0.385355,0.085355,0.385355,0.085355,$1*%
%AMFreePoly5*
4,1,14,0.385355,0.085355,0.400000,0.050000,0.400000,-0.050000,0.385355,-0.085355,0.350000,-0.100000,-0.350000,-0.100000,-0.385355,-0.085355,-0.400000,-0.050000,-0.400000,-0.000711,-0.385355,0.034644,-0.334644,0.085355,-0.299289,0.100000,0.350000,0.100000,0.385355,0.085355,0.385355,0.085355,$1*%
%AMFreePoly6*
4,1,14,0.085355,0.385355,0.100000,0.350000,0.100000,-0.299289,0.085355,-0.334644,0.034644,-0.385355,-0.000711,-0.400000,-0.050000,-0.400000,-0.085355,-0.385355,-0.100000,-0.350000,-0.100000,0.350000,-0.085355,0.385355,-0.050000,0.400000,0.050000,0.400000,0.085355,0.385355,0.085355,0.385355,$1*%
%AMFreePoly7*
4,1,14,0.085355,0.385355,0.100000,0.350000,0.100000,-0.350000,0.085355,-0.385355,0.050000,-0.400000,0.000711,-0.400000,-0.034644,-0.385355,-0.085355,-0.334644,-0.100000,-0.299289,-0.100000,0.350000,-0.085355,0.385355,-0.050000,0.400000,0.050000,0.400000,0.085355,0.385355,0.085355,0.385355,$1*%
%AMFreePoly8*
4,1,30,0.200000,1.710000,0.236753,1.697426,0.376386,1.589219,0.526381,1.504463,0.606724,1.473357,0.606723,1.473356,0.687059,1.442253,0.771046,1.423078,0.855035,1.403901,1.028740,1.390056,1.444035,1.390057,1.486461,1.372484,1.504035,1.330057,1.504034,-1.539942,1.486460,-1.582368,1.444038,-1.599942,1.046227,-1.599966,0.870517,-1.612848,0.700699,-1.650739,0.538235,-1.712988,
0.386579,-1.798267,0.245504,-1.907443,0.208783,-1.919992,-1.650000,-1.919992,-1.692426,-1.902418,-1.710000,-1.859992,-1.710000,1.650007,-1.692426,1.692433,-1.650000,1.710007,0.200000,1.710000,0.200000,1.710000,$1*%
G04 Aperture macros list end*
%TA.AperFunction,NonConductor*%
%ADD10C,0.200000*%
%TD*%
%TA.AperFunction,SMDPad,CuDef*%
%ADD11RoundRect,0.218750X-0.218750X-0.256250X0.218750X-0.256250X0.218750X0.256250X-0.218750X0.256250X0*%
%TD*%
%TA.AperFunction,SMDPad,CuDef*%
%ADD12RoundRect,0.200000X-0.200000X-0.275000X0.200000X-0.275000X0.200000X0.275000X-0.200000X0.275000X0*%
%TD*%
%TA.AperFunction,SMDPad,CuDef*%
%ADD13RoundRect,0.200000X-0.275000X0.200000X-0.275000X-0.200000X0.275000X-0.200000X0.275000X0.200000X0*%
%TD*%
%TA.AperFunction,SMDPad,CuDef*%
%ADD14R,1.700000X1.000000*%
%TD*%
%TA.AperFunction,SMDPad,CuDef*%
%ADD15FreePoly0,0.000000*%
%TD*%
%TA.AperFunction,SMDPad,CuDef*%
%ADD16RoundRect,0.050000X-0.350000X-0.050000X0.350000X-0.050000X0.350000X0.050000X-0.350000X0.050000X0*%
%TD*%
%TA.AperFunction,SMDPad,CuDef*%
%ADD17FreePoly1,0.000000*%
%TD*%
%TA.AperFunction,SMDPad,CuDef*%
%ADD18FreePoly2,0.000000*%
%TD*%
%TA.AperFunction,SMDPad,CuDef*%
%ADD19RoundRect,0.050000X-0.050000X-0.350000X0.050000X-0.350000X0.050000X0.350000X-0.050000X0.350000X0*%
%TD*%
%TA.AperFunction,SMDPad,CuDef*%
%ADD20FreePoly3,0.000000*%
%TD*%
%TA.AperFunction,SMDPad,CuDef*%
%ADD21FreePoly4,0.000000*%
%TD*%
%TA.AperFunction,SMDPad,CuDef*%
%ADD22FreePoly5,0.000000*%
%TD*%
%TA.AperFunction,SMDPad,CuDef*%
%ADD23FreePoly6,0.000000*%
%TD*%
%TA.AperFunction,SMDPad,CuDef*%
%ADD24FreePoly7,0.000000*%
%TD*%
%TA.AperFunction,HeatsinkPad*%
%ADD25R,1.700000X1.700000*%
%TD*%
%TA.AperFunction,SMDPad,CuDef*%
%ADD26RoundRect,0.200000X0.200000X0.275000X-0.200000X0.275000X-0.200000X-0.275000X0.200000X-0.275000X0*%
%TD*%
%TA.AperFunction,SMDPad,CuDef*%
%ADD27FreePoly8,0.000000*%
%TD*%
%TA.AperFunction,SMDPad,CuDef*%
%ADD28FreePoly8,180.000000*%
%TD*%
%TA.AperFunction,ViaPad*%
%ADD29C,0.600000*%
%TD*%
%TA.AperFunction,Conductor*%
%ADD30C,0.200000*%
%TD*%
G04 APERTURE END LIST*
D10*
X102050000Y-78200000D02*
X183600000Y-78200000D01*
X183600000Y-127800000D01*
X102050000Y-127800000D01*
X102050000Y-78200000D01*
D11*
%TO.P,D60,1,K*%
%TO.N,Net-(D12-K)*%
X125525000Y-108100000D03*
%TO.P,D60,2,A*%
%TO.N,Net-(D57-A)*%
X127100000Y-108100000D03*
%TD*%
%TO.P,D36,1,K*%
%TO.N,Net-(D12-K)*%
X125525000Y-102500000D03*
%TO.P,D36,2,A*%
%TO.N,Net-(D33-A)*%
X127100000Y-102500000D03*
%TD*%
%TO.P,D49,1,K*%
%TO.N,Net-(D1-K)*%
X113725000Y-106200000D03*
%TO.P,D49,2,A*%
%TO.N,Net-(D49-A)*%
X115300000Y-106200000D03*
%TD*%
%TO.P,D25,1,K*%
%TO.N,Net-(D1-K)*%
X113700000Y-100600000D03*
%TO.P,D25,2,A*%
%TO.N,Net-(D25-A)*%
X115275000Y-100600000D03*
%TD*%
%TO.P,D61,1,K*%
%TO.N,Net-(D13-K)*%
X129100000Y-108100000D03*
%TO.P,D61,2,A*%
%TO.N,Net-(D57-A)*%
X130675000Y-108100000D03*
%TD*%
%TO.P,D58,1,K*%
%TO.N,Net-(D10-K)*%
X117525000Y-108000000D03*
%TO.P,D58,2,A*%
%TO.N,Net-(D57-A)*%
X119100000Y-108000000D03*
%TD*%
%TO.P,D32,1,K*%
%TO.N,Net-(D16-K)*%
X140525000Y-100900000D03*
%TO.P,D32,2,A*%
%TO.N,Net-(D25-A)*%
X142100000Y-100900000D03*
%TD*%
%TO.P,D14,1,K*%
%TO.N,Net-(D14-K)*%
X133100000Y-96900000D03*
%TO.P,D14,2,A*%
%TO.N,Net-(D10-A)*%
X134675000Y-96900000D03*
%TD*%
%TO.P,D54,1,K*%
%TO.N,Net-(D14-K)*%
X133125000Y-106200000D03*
%TO.P,D54,2,A*%
%TO.N,Net-(D49-A)*%
X134700000Y-106200000D03*
%TD*%
%TO.P,D43,1,K*%
%TO.N,Net-(D11-K)*%
X121725000Y-104400000D03*
%TO.P,D43,2,A*%
%TO.N,Net-(D41-A)*%
X123300000Y-104400000D03*
%TD*%
D12*
%TO.P,R15,1*%
%TO.N,Row6*%
X110075000Y-104400000D03*
%TO.P,R15,2*%
%TO.N,Net-(D41-A)*%
X111725000Y-104400000D03*
%TD*%
D11*
%TO.P,D11,1,K*%
%TO.N,Net-(D11-K)*%
X121725000Y-96700000D03*
%TO.P,D11,2,A*%
%TO.N,Net-(D10-A)*%
X123300000Y-96700000D03*
%TD*%
%TO.P,D21,1,K*%
%TO.N,Net-(D13-K)*%
X129200000Y-98800000D03*
%TO.P,D21,2,A*%
%TO.N,Net-(D17-A)*%
X130775000Y-98800000D03*
%TD*%
D13*
%TO.P,R7,1*%
%TO.N,Net-(D15-K)*%
X136800000Y-110100000D03*
%TO.P,R7,2*%
%TO.N,Col7*%
X136800000Y-111750000D03*
%TD*%
D11*
%TO.P,D2,1,K*%
%TO.N,Net-(D10-K)*%
X117725000Y-94700000D03*
%TO.P,D2,2,A*%
%TO.N,Net-(D1-A)*%
X119300000Y-94700000D03*
%TD*%
D14*
%TO.P,SW1,1,1*%
%TO.N,GND*%
X117600000Y-84500000D03*
X123900000Y-84500000D03*
%TO.P,SW1,2,2*%
%TO.N,Net-(R9-Pad1)*%
X117600000Y-88300000D03*
X123900000Y-88300000D03*
%TD*%
D12*
%TO.P,R18,1*%
%TO.N,Row3*%
X110050000Y-98700000D03*
%TO.P,R18,2*%
%TO.N,Net-(D17-A)*%
X111700000Y-98700000D03*
%TD*%
D11*
%TO.P,D13,1,K*%
%TO.N,Net-(D13-K)*%
X129187500Y-96900000D03*
%TO.P,D13,2,A*%
%TO.N,Net-(D10-A)*%
X130762500Y-96900000D03*
%TD*%
%TO.P,D29,1,K*%
%TO.N,Net-(D13-K)*%
X129200000Y-100700000D03*
%TO.P,D29,2,A*%
%TO.N,Net-(D25-A)*%
X130775000Y-100700000D03*
%TD*%
%TO.P,D7,1,K*%
%TO.N,Net-(D15-K)*%
X136825000Y-94700000D03*
%TO.P,D7,2,A*%
%TO.N,Net-(D1-A)*%
X138400000Y-94700000D03*
%TD*%
D13*
%TO.P,R3,1*%
%TO.N,Net-(D11-K)*%
X121700000Y-109950000D03*
%TO.P,R3,2*%
%TO.N,Col3*%
X121700000Y-111600000D03*
%TD*%
D11*
%TO.P,D31,1,K*%
%TO.N,Net-(D15-K)*%
X136825000Y-100900000D03*
%TO.P,D31,2,A*%
%TO.N,Net-(D25-A)*%
X138400000Y-100900000D03*
%TD*%
%TO.P,D28,1,K*%
%TO.N,Net-(D12-K)*%
X125525000Y-100600000D03*
%TO.P,D28,2,A*%
%TO.N,Net-(D25-A)*%
X127100000Y-100600000D03*
%TD*%
D12*
%TO.P,R14,1*%
%TO.N,Row7*%
X110050000Y-106300000D03*
%TO.P,R14,2*%
%TO.N,Net-(D49-A)*%
X111700000Y-106300000D03*
%TD*%
%TO.P,R13,1*%
%TO.N,Row8*%
X110075000Y-108000000D03*
%TO.P,R13,2*%
%TO.N,Net-(D57-A)*%
X111725000Y-108000000D03*
%TD*%
D11*
%TO.P,D45,1,K*%
%TO.N,Net-(D13-K)*%
X129125000Y-104400000D03*
%TO.P,D45,2,A*%
%TO.N,Net-(D41-A)*%
X130700000Y-104400000D03*
%TD*%
D15*
%TO.P,U1,1,PA2*%
%TO.N,Row3*%
X149925000Y-108275000D03*
D16*
%TO.P,U1,2,PA3*%
%TO.N,Row4*%
X149925000Y-108675000D03*
%TO.P,U1,3,GND*%
%TO.N,GND*%
X149925000Y-109075000D03*
%TO.P,U1,4,VCC*%
%TO.N,Net-(BT1-+)*%
X149925000Y-109475000D03*
D17*
%TO.P,U1,5,PA4*%
%TO.N,Row5*%
X149925000Y-109875000D03*
D18*
%TO.P,U1,6,PA5*%
%TO.N,Row6*%
X150575000Y-110525000D03*
D19*
%TO.P,U1,7,PA6*%
%TO.N,Row7*%
X150975000Y-110525000D03*
%TO.P,U1,8,PA7*%
%TO.N,Row8*%
X151375000Y-110525000D03*
%TO.P,U1,9,PB5*%
%TO.N,Col6*%
X151775000Y-110525000D03*
D20*
%TO.P,U1,10,PB4*%
%TO.N,Col5*%
X152175000Y-110525000D03*
D21*
%TO.P,U1,11,PB3*%
%TO.N,Col4*%
X152825000Y-109875000D03*
D16*
%TO.P,U1,12,PB2*%
%TO.N,Col3*%
X152825000Y-109475000D03*
%TO.P,U1,13,PB1*%
%TO.N,Col2*%
X152825000Y-109075000D03*
%TO.P,U1,14,PB0*%
%TO.N,Col1*%
X152825000Y-108675000D03*
D22*
%TO.P,U1,15,PC0*%
%TO.N,Col7*%
X152825000Y-108275000D03*
D23*
%TO.P,U1,16,PC1*%
%TO.N,Col8*%
X152175000Y-107625000D03*
D19*
%TO.P,U1,17,PC2*%
%TO.N,P1_BTN_ADC*%
X151775000Y-107625000D03*
%TO.P,U1,18,PC3*%
%TO.N,P2_BTN_ADC*%
X151375000Y-107625000D03*
%TO.P,U1,19,~{RESET}/PA0*%
%TO.N,Row1*%
X150975000Y-107625000D03*
D24*
%TO.P,U1,20,PA1*%
%TO.N,Row2*%
X150575000Y-107625000D03*
D25*
%TO.P,U1,21,GND*%
%TO.N,GND*%
X151375000Y-109075000D03*
%TD*%
D11*
%TO.P,D24,1,K*%
%TO.N,Net-(D16-K)*%
X140500000Y-98800000D03*
%TO.P,D24,2,A*%
%TO.N,Net-(D17-A)*%
X142075000Y-98800000D03*
%TD*%
%TO.P,D53,1,K*%
%TO.N,Net-(D13-K)*%
X129125000Y-106200000D03*
%TO.P,D53,2,A*%
%TO.N,Net-(D49-A)*%
X130700000Y-106200000D03*
%TD*%
%TO.P,D16,1,K*%
%TO.N,Net-(D16-K)*%
X140525000Y-96900000D03*
%TO.P,D16,2,A*%
%TO.N,Net-(D10-A)*%
X142100000Y-96900000D03*
%TD*%
%TO.P,D52,1,K*%
%TO.N,Net-(D12-K)*%
X125525000Y-106200000D03*
%TO.P,D52,2,A*%
%TO.N,Net-(D49-A)*%
X127100000Y-106200000D03*
%TD*%
%TO.P,D51,1,K*%
%TO.N,Net-(D11-K)*%
X121725000Y-106200000D03*
%TO.P,D51,2,A*%
%TO.N,Net-(D49-A)*%
X123300000Y-106200000D03*
%TD*%
%TO.P,D63,1,K*%
%TO.N,Net-(D15-K)*%
X136825000Y-108100000D03*
%TO.P,D63,2,A*%
%TO.N,Net-(D57-A)*%
X138400000Y-108100000D03*
%TD*%
D13*
%TO.P,R5,1*%
%TO.N,Net-(D13-K)*%
X129100000Y-110050000D03*
%TO.P,R5,2*%
%TO.N,Col5*%
X129100000Y-111700000D03*
%TD*%
%TO.P,R8,1*%
%TO.N,Net-(D16-K)*%
X140500000Y-110050000D03*
%TO.P,R8,2*%
%TO.N,Col8*%
X140500000Y-111700000D03*
%TD*%
D11*
%TO.P,D23,1,K*%
%TO.N,Net-(D15-K)*%
X136825000Y-98800000D03*
%TO.P,D23,2,A*%
%TO.N,Net-(D17-A)*%
X138400000Y-98800000D03*
%TD*%
D12*
%TO.P,R17,1*%
%TO.N,Row4*%
X110050000Y-100600000D03*
%TO.P,R17,2*%
%TO.N,Net-(D25-A)*%
X111700000Y-100600000D03*
%TD*%
%TO.P,R19,1*%
%TO.N,Row2*%
X110050000Y-96800000D03*
%TO.P,R19,2*%
%TO.N,Net-(D10-A)*%
X111700000Y-96800000D03*
%TD*%
D26*
%TO.P,R9,1*%
%TO.N,Net-(R9-Pad1)*%
X114850000Y-88500000D03*
%TO.P,R9,2*%
%TO.N,P1_BTN_ADC*%
X113200000Y-88500000D03*
%TD*%
D11*
%TO.P,D19,1,K*%
%TO.N,Net-(D11-K)*%
X121712500Y-98800000D03*
%TO.P,D19,2,A*%
%TO.N,Net-(D17-A)*%
X123287500Y-98800000D03*
%TD*%
%TO.P,D30,1,K*%
%TO.N,Net-(D14-K)*%
X133100000Y-100800000D03*
%TO.P,D30,2,A*%
%TO.N,Net-(D25-A)*%
X134675000Y-100800000D03*
%TD*%
D12*
%TO.P,R12,1*%
%TO.N,Net-(R12-Pad1)*%
X140150000Y-122000000D03*
%TO.P,R12,2*%
%TO.N,P2_BTN_ADC*%
X141800000Y-122000000D03*
%TD*%
D11*
%TO.P,D1,1,K*%
%TO.N,Net-(D1-K)*%
X113725000Y-94700000D03*
%TO.P,D1,2,A*%
%TO.N,Net-(D1-A)*%
X115300000Y-94700000D03*
%TD*%
D14*
%TO.P,SW2,1,1*%
%TO.N,GND*%
X129300000Y-84500000D03*
X135600000Y-84500000D03*
%TO.P,SW2,2,2*%
%TO.N,Net-(R10-Pad1)*%
X129300000Y-88300000D03*
X135600000Y-88300000D03*
%TD*%
D11*
%TO.P,D56,1,K*%
%TO.N,Net-(D16-K)*%
X140525000Y-106400000D03*
%TO.P,D56,2,A*%
%TO.N,Net-(D49-A)*%
X142100000Y-106400000D03*
%TD*%
D13*
%TO.P,R1,1*%
%TO.N,Net-(D1-K)*%
X113700000Y-109850000D03*
%TO.P,R1,2*%
%TO.N,Col1*%
X113700000Y-111500000D03*
%TD*%
D11*
%TO.P,D27,1,K*%
%TO.N,Net-(D11-K)*%
X121700000Y-100600000D03*
%TO.P,D27,2,A*%
%TO.N,Net-(D25-A)*%
X123275000Y-100600000D03*
%TD*%
%TO.P,D55,1,K*%
%TO.N,Net-(D15-K)*%
X136825000Y-106300000D03*
%TO.P,D55,2,A*%
%TO.N,Net-(D49-A)*%
X138400000Y-106300000D03*
%TD*%
%TO.P,D5,1,K*%
%TO.N,Net-(D13-K)*%
X129200000Y-94700000D03*
%TO.P,D5,2,A*%
%TO.N,Net-(D1-A)*%
X130775000Y-94700000D03*
%TD*%
D13*
%TO.P,R2,1*%
%TO.N,Net-(D10-K)*%
X117500000Y-109950000D03*
%TO.P,R2,2*%
%TO.N,Col2*%
X117500000Y-111600000D03*
%TD*%
D11*
%TO.P,D20,1,K*%
%TO.N,Net-(D12-K)*%
X125525000Y-98800000D03*
%TO.P,D20,2,A*%
%TO.N,Net-(D17-A)*%
X127100000Y-98800000D03*
%TD*%
%TO.P,D3,1,K*%
%TO.N,Net-(D11-K)*%
X121725000Y-94700000D03*
%TO.P,D3,2,A*%
%TO.N,Net-(D1-A)*%
X123300000Y-94700000D03*
%TD*%
%TO.P,D17,1,K*%
%TO.N,Net-(D1-K)*%
X113725000Y-98700000D03*
%TO.P,D17,2,A*%
%TO.N,Net-(D17-A)*%
X115300000Y-98700000D03*
%TD*%
%TO.P,D26,1,K*%
%TO.N,Net-(D10-K)*%
X117700000Y-100600000D03*
%TO.P,D26,2,A*%
%TO.N,Net-(D25-A)*%
X119275000Y-100600000D03*
%TD*%
%TO.P,D57,1,K*%
%TO.N,Net-(D1-K)*%
X113725000Y-108000000D03*
%TO.P,D57,2,A*%
%TO.N,Net-(D57-A)*%
X115300000Y-108000000D03*
%TD*%
D14*
%TO.P,SW4,1,1*%
%TO.N,GND*%
X129700000Y-118100000D03*
X136000000Y-118100000D03*
%TO.P,SW4,2,2*%
%TO.N,Net-(R12-Pad1)*%
X129700000Y-121900000D03*
X136000000Y-121900000D03*
%TD*%
D11*
%TO.P,D44,1,K*%
%TO.N,Net-(D12-K)*%
X125525000Y-104400000D03*
%TO.P,D44,2,A*%
%TO.N,Net-(D41-A)*%
X127100000Y-104400000D03*
%TD*%
D12*
%TO.P,R10,1*%
%TO.N,Net-(R10-Pad1)*%
X138250000Y-88300000D03*
%TO.P,R10,2*%
%TO.N,P1_BTN_ADC*%
X139900000Y-88300000D03*
%TD*%
D11*
%TO.P,D9,1,K*%
%TO.N,Net-(D1-K)*%
X113725000Y-96700000D03*
%TO.P,D9,2,A*%
%TO.N,Net-(D10-A)*%
X115300000Y-96700000D03*
%TD*%
%TO.P,D46,1,K*%
%TO.N,Net-(D14-K)*%
X133125000Y-104400000D03*
%TO.P,D46,2,A*%
%TO.N,Net-(D41-A)*%
X134700000Y-104400000D03*
%TD*%
%TO.P,D10,1,K*%
%TO.N,Net-(D10-K)*%
X117725000Y-96700000D03*
%TO.P,D10,2,A*%
%TO.N,Net-(D10-A)*%
X119300000Y-96700000D03*
%TD*%
%TO.P,D64,1,K*%
%TO.N,Net-(D16-K)*%
X140525000Y-108200000D03*
%TO.P,D64,2,A*%
%TO.N,Net-(D57-A)*%
X142100000Y-108200000D03*
%TD*%
D12*
%TO.P,R20,1*%
%TO.N,Row1*%
X109950000Y-94700000D03*
%TO.P,R20,2*%
%TO.N,Net-(D1-A)*%
X111600000Y-94700000D03*
%TD*%
D11*
%TO.P,D33,1,K*%
%TO.N,Net-(D1-K)*%
X113725000Y-102500000D03*
%TO.P,D33,2,A*%
%TO.N,Net-(D33-A)*%
X115300000Y-102500000D03*
%TD*%
D27*
%TO.P,BT1,1,+*%
%TO.N,Net-(BT1-+)*%
X147700000Y-92100000D03*
D28*
%TO.P,BT1,2,-*%
%TO.N,GND*%
X178000000Y-92300000D03*
%TD*%
D11*
%TO.P,D40,1,K*%
%TO.N,Net-(D16-K)*%
X140525000Y-102700000D03*
%TO.P,D40,2,A*%
%TO.N,Net-(D33-A)*%
X142100000Y-102700000D03*
%TD*%
%TO.P,D18,1,K*%
%TO.N,Net-(D10-K)*%
X117700000Y-98700000D03*
%TO.P,D18,2,A*%
%TO.N,Net-(D17-A)*%
X119275000Y-98700000D03*
%TD*%
%TO.P,D41,1,K*%
%TO.N,Net-(D1-K)*%
X113712500Y-104400000D03*
%TO.P,D41,2,A*%
%TO.N,Net-(D41-A)*%
X115287500Y-104400000D03*
%TD*%
%TO.P,D12,1,K*%
%TO.N,Net-(D12-K)*%
X125525000Y-96800000D03*
%TO.P,D12,2,A*%
%TO.N,Net-(D10-A)*%
X127100000Y-96800000D03*
%TD*%
%TO.P,D39,1,K*%
%TO.N,Net-(D15-K)*%
X136825000Y-102600000D03*
%TO.P,D39,2,A*%
%TO.N,Net-(D33-A)*%
X138400000Y-102600000D03*
%TD*%
%TO.P,D42,1,K*%
%TO.N,Net-(D10-K)*%
X117525000Y-104400000D03*
%TO.P,D42,2,A*%
%TO.N,Net-(D41-A)*%
X119100000Y-104400000D03*
%TD*%
%TO.P,D4,1,K*%
%TO.N,Net-(D12-K)*%
X125512500Y-94700000D03*
%TO.P,D4,2,A*%
%TO.N,Net-(D1-A)*%
X127087500Y-94700000D03*
%TD*%
%TO.P,D62,1,K*%
%TO.N,Net-(D14-K)*%
X133125000Y-108100000D03*
%TO.P,D62,2,A*%
%TO.N,Net-(D57-A)*%
X134700000Y-108100000D03*
%TD*%
%TO.P,D35,1,K*%
%TO.N,Net-(D11-K)*%
X121700000Y-102500000D03*
%TO.P,D35,2,A*%
%TO.N,Net-(D33-A)*%
X123275000Y-102500000D03*
%TD*%
%TO.P,D22,1,K*%
%TO.N,Net-(D14-K)*%
X133100000Y-98900000D03*
%TO.P,D22,2,A*%
%TO.N,Net-(D17-A)*%
X134675000Y-98900000D03*
%TD*%
%TO.P,D38,1,K*%
%TO.N,Net-(D14-K)*%
X133100000Y-102500000D03*
%TO.P,D38,2,A*%
%TO.N,Net-(D33-A)*%
X134675000Y-102500000D03*
%TD*%
%TO.P,D37,1,K*%
%TO.N,Net-(D13-K)*%
X129200000Y-102500000D03*
%TO.P,D37,2,A*%
%TO.N,Net-(D33-A)*%
X130775000Y-102500000D03*
%TD*%
D13*
%TO.P,R4,1*%
%TO.N,Net-(D12-K)*%
X125500000Y-110075000D03*
%TO.P,R4,2*%
%TO.N,Col4*%
X125500000Y-111725000D03*
%TD*%
D11*
%TO.P,D50,1,K*%
%TO.N,Net-(D10-K)*%
X117525000Y-106200000D03*
%TO.P,D50,2,A*%
%TO.N,Net-(D49-A)*%
X119100000Y-106200000D03*
%TD*%
%TO.P,D15,1,K*%
%TO.N,Net-(D15-K)*%
X136825000Y-96900000D03*
%TO.P,D15,2,A*%
%TO.N,Net-(D10-A)*%
X138400000Y-96900000D03*
%TD*%
D26*
%TO.P,R11,1*%
%TO.N,Net-(R11-Pad1)*%
X115300000Y-122100000D03*
%TO.P,R11,2*%
%TO.N,P2_BTN_ADC*%
X113650000Y-122100000D03*
%TD*%
D13*
%TO.P,R6,1*%
%TO.N,Net-(D14-K)*%
X133200000Y-110050000D03*
%TO.P,R6,2*%
%TO.N,Col6*%
X133200000Y-111700000D03*
%TD*%
D11*
%TO.P,D48,1,K*%
%TO.N,Net-(D16-K)*%
X140525000Y-104500000D03*
%TO.P,D48,2,A*%
%TO.N,Net-(D41-A)*%
X142100000Y-104500000D03*
%TD*%
%TO.P,D47,1,K*%
%TO.N,Net-(D15-K)*%
X136825000Y-104500000D03*
%TO.P,D47,2,A*%
%TO.N,Net-(D41-A)*%
X138400000Y-104500000D03*
%TD*%
%TO.P,D8,1,K*%
%TO.N,Net-(D16-K)*%
X140600000Y-94700000D03*
%TO.P,D8,2,A*%
%TO.N,Net-(D1-A)*%
X142175000Y-94700000D03*
%TD*%
D14*
%TO.P,SW3,1,1*%
%TO.N,GND*%
X118000000Y-118100000D03*
X124300000Y-118100000D03*
%TO.P,SW3,2,2*%
%TO.N,Net-(R11-Pad1)*%
X118000000Y-121900000D03*
X124300000Y-121900000D03*
%TD*%
D12*
%TO.P,R16,1*%
%TO.N,Row5*%
X110050000Y-102600000D03*
%TO.P,R16,2*%
%TO.N,Net-(D33-A)*%
X111700000Y-102600000D03*
%TD*%
D11*
%TO.P,D34,1,K*%
%TO.N,Net-(D10-K)*%
X117600000Y-102500000D03*
%TO.P,D34,2,A*%
%TO.N,Net-(D33-A)*%
X119175000Y-102500000D03*
%TD*%
%TO.P,D6,1,K*%
%TO.N,Net-(D14-K)*%
X133200000Y-94700000D03*
%TO.P,D6,2,A*%
%TO.N,Net-(D1-A)*%
X134775000Y-94700000D03*
%TD*%
%TO.P,D59,1,K*%
%TO.N,Net-(D11-K)*%
X121625000Y-108100000D03*
%TO.P,D59,2,A*%
%TO.N,Net-(D57-A)*%
X123200000Y-108100000D03*
%TD*%
D29*
%TO.N,GND*%
X151375000Y-109075000D03*
X148196446Y-109296446D03*
X151375000Y-109075000D03*
X145500000Y-111200000D03*
X164100000Y-106300000D03*
X138700000Y-118100000D03*
%TO.N,Net-(BT1-+)*%
X143876000Y-96900000D03*
X147300000Y-111700000D03*
%TO.N,Row1*%
X142400000Y-92900000D03*
X150875000Y-106200000D03*
%TO.N,Row2*%
X150475000Y-106800000D03*
X108900000Y-94000000D03*
%TO.N,Row3*%
X141800000Y-92100000D03*
X147296446Y-101903554D03*
%TO.N,Row4*%
X145100000Y-124200000D03*
X146700000Y-119300000D03*
%TO.N,Row5*%
X149700000Y-111200000D03*
X146300000Y-124000000D03*
%TO.N,Row6*%
X106000000Y-118400000D03*
X150500000Y-112200000D03*
X149900000Y-125100000D03*
X104600000Y-114200000D03*
%TO.N,Row7*%
X102800000Y-113300000D03*
X151600000Y-114200000D03*
X104800000Y-111200000D03*
X150200000Y-125900000D03*
%TO.N,Row8*%
X152600000Y-113700000D03*
X151700000Y-126000000D03*
X107300000Y-121600000D03*
X107300000Y-116800000D03*
%TO.N,Col7*%
X158300000Y-114100000D03*
X154200000Y-108175000D03*
%TO.N,Col8*%
X161296446Y-105003554D03*
X159200000Y-116100000D03*
%TO.N,P1_BTN_ADC*%
X151175735Y-105075735D03*
X152024265Y-105924265D03*
%TO.N,Net-(D1-A)*%
X134775000Y-94700000D03*
X142175000Y-94700000D03*
X123300000Y-94700000D03*
X119300000Y-94700000D03*
X111600000Y-94700000D03*
X127087500Y-94700000D03*
X115300000Y-94700000D03*
X138400000Y-94700000D03*
X130775000Y-94700000D03*
%TO.N,Net-(D10-A)*%
X119300000Y-96700000D03*
X127100000Y-96800000D03*
X134675000Y-96900000D03*
X115300000Y-96700000D03*
X111700000Y-96800000D03*
X130762500Y-96900000D03*
X142100000Y-96900000D03*
X123300000Y-96700000D03*
X138400000Y-96900000D03*
%TO.N,Net-(D17-A)*%
X127100000Y-98800000D03*
X111700000Y-98700000D03*
X134675000Y-98900000D03*
X142075000Y-98800000D03*
X130775000Y-98800000D03*
X138400000Y-98800000D03*
X115300000Y-98700000D03*
X119275000Y-98700000D03*
X123287500Y-98800000D03*
%TO.N,Net-(D25-A)*%
X138400000Y-100900000D03*
X142100000Y-100900000D03*
X127100000Y-100600000D03*
X111700000Y-100600000D03*
X115275000Y-100600000D03*
X134675000Y-100800000D03*
X123275000Y-100600000D03*
X119275000Y-100600000D03*
X130775000Y-100700000D03*
%TO.N,Net-(D33-A)*%
X115300000Y-102500000D03*
X111700000Y-102600000D03*
X123275000Y-102500000D03*
X127100000Y-102500000D03*
X142100000Y-102700000D03*
X130775000Y-102500000D03*
X138400000Y-102600000D03*
X134675000Y-102500000D03*
X119175000Y-102500000D03*
%TO.N,Net-(D41-A)*%
X119100000Y-104400000D03*
X138400000Y-104500000D03*
X111725000Y-104400000D03*
X130700000Y-104400000D03*
X123300000Y-104400000D03*
X142100000Y-104500000D03*
X127100000Y-104400000D03*
X115287500Y-104400000D03*
X134700000Y-104400000D03*
%TO.N,Net-(D49-A)*%
X119100000Y-106200000D03*
X123300000Y-106200000D03*
X134700000Y-106200000D03*
X130700000Y-106200000D03*
X142100000Y-106400000D03*
X115300000Y-106200000D03*
X138400000Y-106300000D03*
X111700000Y-106300000D03*
X127100000Y-106200000D03*
%TO.N,Net-(D57-A)*%
X142100000Y-108200000D03*
X111725000Y-108000000D03*
X115300000Y-108000000D03*
X119100000Y-108000000D03*
X130675000Y-108100000D03*
X123200000Y-108100000D03*
X127100000Y-108100000D03*
X138400000Y-108100000D03*
X134700000Y-108100000D03*
%TD*%
D30*
%TO.N,GND*%
X136000000Y-118100000D02*
X138700000Y-118100000D01*
X129700000Y-118100000D02*
X136000000Y-118100000D01*
X118000000Y-118100000D02*
X124300000Y-118100000D01*
X147403554Y-109296446D02*
X148196446Y-109296446D01*
X129300000Y-84500000D02*
X135600000Y-84500000D01*
X181800000Y-96100000D02*
X181800000Y-98900000D01*
X178000000Y-92300000D02*
X180700000Y-89600000D01*
X180700000Y-82100000D02*
X178600000Y-80000000D01*
X124300000Y-118100000D02*
X129700000Y-118100000D01*
X181800000Y-98900000D02*
X174400000Y-106300000D01*
X117600000Y-84500000D02*
X123900000Y-84500000D01*
X180700000Y-89600000D02*
X180700000Y-82100000D01*
X178000000Y-92300000D02*
X181800000Y-96100000D01*
X140100000Y-80000000D02*
X135600000Y-84500000D01*
X123900000Y-84500000D02*
X129300000Y-84500000D01*
X178600000Y-80000000D02*
X140100000Y-80000000D01*
X174400000Y-106300000D02*
X164100000Y-106300000D01*
X151375000Y-109075000D02*
X149925000Y-109075000D01*
X145500000Y-111200000D02*
X147403554Y-109296446D01*
%TO.N,Net-(BT1-+)*%
X149425000Y-109475000D02*
X149925000Y-109475000D01*
X148800000Y-111000000D02*
X148800000Y-110100000D01*
X148100000Y-111700000D02*
X148800000Y-111000000D01*
X148800000Y-110100000D02*
X149425000Y-109475000D01*
X147300000Y-111700000D02*
X148100000Y-111700000D01*
X147700000Y-92100000D02*
X143876000Y-95924000D01*
X143876000Y-95924000D02*
X143876000Y-96900000D01*
%TO.N,Net-(D1-K)*%
X113725000Y-94700000D02*
X113725000Y-109825000D01*
X113725000Y-109825000D02*
X113700000Y-109850000D01*
%TO.N,Row1*%
X109950000Y-94700000D02*
X111750000Y-92900000D01*
X150875000Y-106200000D02*
X150975000Y-106300000D01*
X150975000Y-106300000D02*
X150975000Y-107625000D01*
X111750000Y-92900000D02*
X142400000Y-92900000D01*
%TO.N,Net-(D10-K)*%
X117500000Y-94925000D02*
X117725000Y-94700000D01*
X117500000Y-109950000D02*
X117500000Y-94925000D01*
%TO.N,Net-(D11-K)*%
X121725000Y-109925000D02*
X121700000Y-109950000D01*
X121725000Y-94700000D02*
X121725000Y-109925000D01*
%TO.N,Net-(D12-K)*%
X125512500Y-94700000D02*
X125512500Y-110062500D01*
X125512500Y-110062500D02*
X125500000Y-110075000D01*
%TO.N,Net-(D13-K)*%
X129200000Y-109950000D02*
X129100000Y-110050000D01*
X129200000Y-94700000D02*
X129200000Y-109950000D01*
%TO.N,Net-(D14-K)*%
X133200000Y-94700000D02*
X133200000Y-110050000D01*
%TO.N,Net-(D15-K)*%
X136825000Y-110075000D02*
X136800000Y-110100000D01*
X136825000Y-94700000D02*
X136825000Y-110075000D01*
%TO.N,Net-(D16-K)*%
X140600000Y-109950000D02*
X140500000Y-110050000D01*
X140600000Y-94700000D02*
X140600000Y-109950000D01*
%TO.N,Row2*%
X108900000Y-94000000D02*
X108900000Y-95650000D01*
X108900000Y-95650000D02*
X110050000Y-96800000D01*
X150575000Y-107625000D02*
X150575000Y-106900000D01*
X150575000Y-106900000D02*
X150475000Y-106800000D01*
%TO.N,Row3*%
X115100000Y-91800000D02*
X116300000Y-91800000D01*
X140900000Y-92600000D02*
X141300000Y-92600000D01*
X147296446Y-101903554D02*
X147296446Y-105646446D01*
X110050000Y-98700000D02*
X108400000Y-97050000D01*
X117100000Y-92600000D02*
X140900000Y-92600000D01*
X108900000Y-91900000D02*
X109000000Y-91800000D01*
X108400000Y-92400000D02*
X108900000Y-91900000D01*
X116300000Y-91800000D02*
X117100000Y-92600000D01*
X108400000Y-97050000D02*
X108400000Y-92400000D01*
X109000000Y-91800000D02*
X115100000Y-91800000D01*
X147296446Y-105646446D02*
X149925000Y-108275000D01*
X141300000Y-92600000D02*
X141800000Y-92100000D01*
%TO.N,Row4*%
X146700000Y-111500000D02*
X146700000Y-119300000D01*
X103300000Y-103800000D02*
X106500000Y-100600000D01*
X149525000Y-108675000D02*
X146700000Y-111500000D01*
X113000000Y-124200000D02*
X103300000Y-114500000D01*
X106500000Y-100600000D02*
X110050000Y-100600000D01*
X145100000Y-124200000D02*
X113000000Y-124200000D01*
X103300000Y-114500000D02*
X103300000Y-103800000D01*
X149925000Y-108675000D02*
X149525000Y-108675000D01*
%TO.N,Row5*%
X112000000Y-122600000D02*
X113099000Y-123699000D01*
X103900000Y-103900000D02*
X103900000Y-114100000D01*
X145999000Y-123699000D02*
X146300000Y-124000000D01*
X149700000Y-111200000D02*
X149700000Y-110100000D01*
X103900000Y-114100000D02*
X103900000Y-114500000D01*
X105200000Y-102600000D02*
X103900000Y-103900000D01*
X149700000Y-110100000D02*
X149925000Y-109875000D01*
X110050000Y-102600000D02*
X105200000Y-102600000D01*
X113099000Y-123699000D02*
X145999000Y-123699000D01*
X103900000Y-114500000D02*
X112000000Y-122600000D01*
%TO.N,Row6*%
X150500000Y-112200000D02*
X150500000Y-110600000D01*
X104300000Y-105600000D02*
X104300000Y-113900000D01*
X112700000Y-125100000D02*
X149900000Y-125100000D01*
X106000000Y-118400000D02*
X112700000Y-125100000D01*
X104300000Y-113900000D02*
X104600000Y-114200000D01*
X150500000Y-110600000D02*
X150575000Y-110525000D01*
X105500000Y-104400000D02*
X104300000Y-105600000D01*
X110075000Y-104400000D02*
X105500000Y-104400000D01*
%TO.N,Row7*%
X112791479Y-125900000D02*
X102800000Y-115908521D01*
X108300000Y-106300000D02*
X110050000Y-106300000D01*
X150200000Y-125900000D02*
X119700000Y-125900000D01*
X150975000Y-110525000D02*
X151001000Y-110551000D01*
X102800000Y-115908521D02*
X102800000Y-113300000D01*
X104800000Y-111200000D02*
X104800000Y-109800000D01*
X119700000Y-125900000D02*
X112791479Y-125900000D01*
X151001000Y-110551000D02*
X151001000Y-113601000D01*
X151001000Y-113601000D02*
X151600000Y-114200000D01*
X104800000Y-109800000D02*
X108300000Y-106300000D01*
%TO.N,Row8*%
X107300000Y-115900000D02*
X107300000Y-116800000D01*
X112400000Y-126700000D02*
X112800000Y-126700000D01*
X112800000Y-126700000D02*
X141700000Y-126700000D01*
X105700000Y-110000000D02*
X105500000Y-110200000D01*
X151375000Y-112475000D02*
X151375000Y-110525000D01*
X151000000Y-126700000D02*
X151700000Y-126000000D01*
X141700000Y-126700000D02*
X151000000Y-126700000D01*
X110075000Y-108000000D02*
X107700000Y-108000000D01*
X152600000Y-113700000D02*
X151375000Y-112475000D01*
X107300000Y-121600000D02*
X112400000Y-126700000D01*
X105500000Y-114100000D02*
X107300000Y-115900000D01*
X107700000Y-108000000D02*
X105700000Y-110000000D01*
X105500000Y-110200000D02*
X105500000Y-114100000D01*
%TO.N,Col1*%
X152825000Y-108675000D02*
X161075000Y-108675000D01*
X137900000Y-116000000D02*
X116300000Y-116000000D01*
X144899000Y-122999000D02*
X137900000Y-116000000D01*
X161699000Y-109299000D02*
X161699000Y-117775322D01*
X116300000Y-116000000D02*
X113700000Y-113400000D01*
X156475322Y-122999000D02*
X144899000Y-122999000D01*
X161699000Y-117775322D02*
X156475322Y-122999000D01*
X161075000Y-108675000D02*
X161699000Y-109299000D01*
X113700000Y-113400000D02*
X113700000Y-111500000D01*
%TO.N,Col2*%
X161049322Y-109075000D02*
X152825000Y-109075000D01*
X156350644Y-122698000D02*
X161398000Y-117650644D01*
X161398000Y-109423678D02*
X161049322Y-109075000D01*
X161398000Y-117650644D02*
X161398000Y-109423678D01*
X145198000Y-122698000D02*
X156350644Y-122698000D01*
X138199000Y-115699000D02*
X145198000Y-122698000D01*
X117500000Y-113999000D02*
X119200000Y-115699000D01*
X117500000Y-111600000D02*
X117500000Y-113999000D01*
X119200000Y-115699000D02*
X138199000Y-115699000D01*
%TO.N,Col3*%
X121700000Y-113600000D02*
X121700000Y-111600000D01*
X161097000Y-109900000D02*
X161097000Y-117525966D01*
X156225966Y-122397000D02*
X145322678Y-122397000D01*
X123300000Y-115200000D02*
X121700000Y-113600000D01*
X161097000Y-117525966D02*
X156225966Y-122397000D01*
X138125678Y-115200000D02*
X123300000Y-115200000D01*
X145322678Y-122397000D02*
X138125678Y-115200000D01*
X160672000Y-109475000D02*
X161097000Y-109900000D01*
X152825000Y-109475000D02*
X160672000Y-109475000D01*
%TO.N,Col4*%
X154200000Y-110100000D02*
X153900000Y-110100000D01*
X126300000Y-114899000D02*
X138250356Y-114899000D01*
X138250356Y-114899000D02*
X145447356Y-122096000D01*
X160700000Y-117300000D02*
X160700000Y-110100000D01*
X125500000Y-114099000D02*
X126300000Y-114899000D01*
X153900000Y-110100000D02*
X153675000Y-109875000D01*
X160400000Y-109800000D02*
X154500000Y-109800000D01*
X155900000Y-122096000D02*
X160696000Y-117300000D01*
X125500000Y-111725000D02*
X125500000Y-114099000D01*
X160700000Y-110100000D02*
X160400000Y-109800000D01*
X160696000Y-117300000D02*
X160700000Y-117300000D01*
X154500000Y-109800000D02*
X154200000Y-110100000D01*
X145447356Y-122096000D02*
X155900000Y-122096000D01*
X153675000Y-109875000D02*
X152825000Y-109875000D01*
%TO.N,Col5*%
X138300000Y-114500000D02*
X145500000Y-121700000D01*
X160274322Y-110100000D02*
X155100000Y-110100000D01*
X153200000Y-112000000D02*
X152400000Y-112000000D01*
X160399000Y-117001000D02*
X160399000Y-110224678D01*
X155100000Y-110100000D02*
X153200000Y-112000000D01*
X145500000Y-121700000D02*
X155700000Y-121700000D01*
X152400000Y-112000000D02*
X152175000Y-111775000D01*
X129400000Y-114500000D02*
X138300000Y-114500000D01*
X155700000Y-121700000D02*
X160399000Y-117001000D01*
X129100000Y-111700000D02*
X129100000Y-114200000D01*
X152175000Y-111775000D02*
X152175000Y-110525000D01*
X160399000Y-110224678D02*
X160274322Y-110100000D01*
X129100000Y-114200000D02*
X129400000Y-114500000D01*
%TO.N,Col6*%
X159901000Y-110401000D02*
X159600000Y-110401000D01*
X145600000Y-121200000D02*
X155774322Y-121200000D01*
X133600000Y-114200000D02*
X138600000Y-114200000D01*
X138600000Y-114200000D02*
X145600000Y-121200000D01*
X152100000Y-112400000D02*
X151775000Y-112075000D01*
X153400000Y-112400000D02*
X152100000Y-112400000D01*
X160098000Y-116876322D02*
X160098000Y-110598000D01*
X133200000Y-111700000D02*
X133200000Y-113800000D01*
X160098000Y-110598000D02*
X159901000Y-110401000D01*
X159600000Y-110401000D02*
X159599000Y-110400000D01*
X155774322Y-121200000D02*
X160098000Y-116876322D01*
X133200000Y-113800000D02*
X133600000Y-114200000D01*
X151775000Y-112075000D02*
X151775000Y-110525000D01*
X159599000Y-110400000D02*
X155400000Y-110400000D01*
X155400000Y-110400000D02*
X153400000Y-112400000D01*
%TO.N,Col7*%
X152925000Y-108175000D02*
X152825000Y-108275000D01*
X136800000Y-111750000D02*
X136800000Y-113399000D01*
X136800000Y-113399000D02*
X137300000Y-113899000D01*
X137300000Y-113899000D02*
X138999000Y-113899000D01*
X159774322Y-115574322D02*
X158300000Y-114100000D01*
X145712839Y-120887161D02*
X145724678Y-120899000D01*
X140200000Y-115374322D02*
X145712839Y-120887161D01*
X138999000Y-113899000D02*
X140200000Y-115100000D01*
X155649644Y-120899000D02*
X159774322Y-116774322D01*
X145724678Y-120899000D02*
X155649644Y-120899000D01*
X159774322Y-116774322D02*
X159774322Y-115574322D01*
X154200000Y-108175000D02*
X152925000Y-108175000D01*
X140200000Y-115100000D02*
X140200000Y-115374322D01*
%TO.N,Col8*%
X141200000Y-115800000D02*
X141200000Y-114000000D01*
X154796446Y-105003554D02*
X161296446Y-105003554D01*
X145900000Y-120500000D02*
X141200000Y-115800000D01*
X159200000Y-116900000D02*
X155600000Y-120500000D01*
X159200000Y-116100000D02*
X159200000Y-116900000D01*
X141200000Y-114000000D02*
X140500000Y-113300000D01*
X152175000Y-107625000D02*
X154796446Y-105003554D01*
X155600000Y-120500000D02*
X145900000Y-120500000D01*
X140500000Y-113300000D02*
X140500000Y-111700000D01*
%TO.N,Net-(R9-Pad1)*%
X117600000Y-88300000D02*
X123900000Y-88300000D01*
X117400000Y-88500000D02*
X117600000Y-88300000D01*
X114850000Y-88500000D02*
X117400000Y-88500000D01*
%TO.N,P1_BTN_ADC*%
X113200000Y-88500000D02*
X114650000Y-89950000D01*
X114650000Y-89950000D02*
X141550000Y-89950000D01*
X152024265Y-105924265D02*
X152024265Y-106475735D01*
X151775000Y-106725000D02*
X151775000Y-107625000D01*
X143376000Y-91776000D02*
X143376000Y-97276000D01*
X143376000Y-97276000D02*
X151175735Y-105075735D01*
X139900000Y-88300000D02*
X141550000Y-89950000D01*
X152024265Y-106475735D02*
X151775000Y-106725000D01*
X141550000Y-89950000D02*
X143376000Y-91776000D01*
%TO.N,Net-(R10-Pad1)*%
X129300000Y-88300000D02*
X135600000Y-88300000D01*
X138250000Y-88300000D02*
X135600000Y-88300000D01*
%TO.N,P2_BTN_ADC*%
X113650000Y-122100000D02*
X114850000Y-123300000D01*
X141800000Y-123300000D02*
X156600000Y-123300000D01*
X152900000Y-104200000D02*
X151375000Y-105725000D01*
X156600000Y-123300000D02*
X162000000Y-117900000D01*
X114850000Y-123300000D02*
X141800000Y-123300000D01*
X162000000Y-117900000D02*
X162000000Y-105000000D01*
X161200000Y-104200000D02*
X152900000Y-104200000D01*
X141800000Y-122000000D02*
X141800000Y-123300000D01*
X162000000Y-105000000D02*
X161200000Y-104200000D01*
X151375000Y-105725000D02*
X151375000Y-107625000D01*
%TO.N,Net-(R11-Pad1)*%
X117500000Y-122100000D02*
X115300000Y-122100000D01*
X124300000Y-121900000D02*
X118000000Y-121900000D01*
X118000000Y-121900000D02*
X117700000Y-121900000D01*
X117700000Y-121900000D02*
X117500000Y-122100000D01*
%TO.N,Net-(R12-Pad1)*%
X140150000Y-122000000D02*
X136100000Y-122000000D01*
X129700000Y-121900000D02*
X136000000Y-121900000D01*
X136100000Y-122000000D02*
X136000000Y-121900000D01*
%TD*%
M02*
