M48
; DRILL file {KiCad 9.0.7} date 2026-05-05T17:37:33-0700
; FORMAT={-:-/ absolute / metric / decimal}
; #@! TF.CreationDate,2026-05-05T17:37:33-07:00
; #@! TF.GenerationSoftware,Kicad,Pcbnew,9.0.7
; #@! TF.FileFunction,Plated,1,2,PTH
FMAT,2
METRIC
; #@! TA.AperFunction,Plated,PTH,ViaDrill
T1C0.300
%
G90
G05
T1
X102.8Y-113.3
X104.6Y-114.2
X104.8Y-111.2
X106.0Y-118.4
X107.3Y-116.8
X107.3Y-121.6
X108.9Y-94.0
X111.6Y-94.7
X111.7Y-96.8
X111.7Y-98.7
X111.7Y-100.6
X111.7Y-102.6
X111.7Y-106.3
X111.725Y-104.4
X111.725Y-108.0
X115.275Y-100.6
X115.287Y-104.4
X115.3Y-94.7
X115.3Y-96.7
X115.3Y-98.7
X115.3Y-102.5
X115.3Y-106.2
X115.3Y-108.0
X119.1Y-104.4
X119.1Y-106.2
X119.1Y-108.0
X119.175Y-102.5
X119.275Y-98.7
X119.275Y-100.6
X119.3Y-94.7
X119.3Y-96.7
X123.2Y-108.1
X123.275Y-100.6
X123.275Y-102.5
X123.287Y-98.8
X123.3Y-94.7
X123.3Y-96.7
X123.3Y-104.4
X123.3Y-106.2
X127.087Y-94.7
X127.1Y-96.8
X127.1Y-98.8
X127.1Y-100.6
X127.1Y-102.5
X127.1Y-104.4
X127.1Y-106.2
X127.1Y-108.1
X130.675Y-108.1
X130.7Y-104.4
X130.7Y-106.2
X130.762Y-96.9
X130.775Y-94.7
X130.775Y-98.8
X130.775Y-100.7
X130.775Y-102.5
X134.675Y-96.9
X134.675Y-98.9
X134.675Y-100.8
X134.675Y-102.5
X134.7Y-104.4
X134.7Y-106.2
X134.7Y-108.1
X134.775Y-94.7
X138.4Y-94.7
X138.4Y-96.9
X138.4Y-98.8
X138.4Y-100.9
X138.4Y-102.6
X138.4Y-104.5
X138.4Y-106.3
X138.4Y-108.1
X138.7Y-118.1
X141.8Y-92.1
X142.075Y-98.8
X142.1Y-96.9
X142.1Y-100.9
X142.1Y-102.7
X142.1Y-104.5
X142.1Y-106.4
X142.1Y-108.2
X142.175Y-94.7
X142.4Y-92.9
X143.876Y-96.9
X145.1Y-124.2
X145.5Y-111.2
X146.3Y-124.0
X146.7Y-119.3
X147.296Y-101.904
X147.3Y-111.7
X148.196Y-109.296
X149.7Y-111.2
X149.9Y-125.1
X150.2Y-125.9
X150.475Y-106.8
X150.5Y-112.2
X150.875Y-106.2
X151.176Y-105.076
X151.375Y-109.075
X151.375Y-109.075
X151.6Y-114.2
X151.7Y-126.0
X152.024Y-105.924
X152.6Y-113.7
X154.2Y-108.175
X158.3Y-114.1
X159.2Y-116.1
X161.296Y-105.004
X164.1Y-106.3
M30
