%TF.GenerationSoftware,KiCad,Pcbnew,9.0.7*%
%TF.CreationDate,2026-05-05T17:37:21-07:00*%
%TF.ProjectId,Card,43617264-2e6b-4696-9361-645f70636258,rev?*%
%TF.SameCoordinates,Original*%
%TF.FileFunction,Profile,NP*%
%FSLAX46Y46*%
G04 Gerber Fmt 4.6, Leading zero omitted, Abs format (unit mm)*
G04 Created by KiCad (PCBNEW 9.0.7) date 2026-05-05 17:37:21*
%MOMM*%
%LPD*%
G01*
G04 APERTURE LIST*
%TA.AperFunction,Profile*%
%ADD10C,0.050000*%
%TD*%
%TA.AperFunction,Profile*%
%ADD11C,0.100000*%
%TD*%
G04 APERTURE END LIST*
D10*
X101675000Y-77950000D02*
X184025000Y-77950000D01*
X184025000Y-128075000D01*
X101675000Y-128075000D01*
X101675000Y-77950000D01*
D11*
%TO.C,BT1*%
X148150000Y-90114950D02*
X148150000Y-88915000D01*
X148150000Y-95484899D02*
X148150000Y-94284949D01*
X148550000Y-88515000D02*
X150605379Y-88515000D01*
X148550000Y-93884949D02*
X149350000Y-93884949D01*
X149350000Y-90514950D02*
X148550000Y-90514950D01*
X149350000Y-93884949D02*
X149350000Y-90514950D01*
X150605379Y-88515000D02*
X150928563Y-88488715D01*
X150605379Y-95884999D02*
X148550000Y-95884899D01*
X150928563Y-88488715D02*
X151243253Y-88410552D01*
X150928563Y-95911284D02*
X150605379Y-95884999D01*
X151243253Y-88410552D02*
X151541176Y-88282565D01*
X151243253Y-95989447D02*
X150928563Y-95911284D01*
X151541176Y-88282565D02*
X151814502Y-88108117D01*
X151541176Y-96117434D02*
X151243253Y-95989447D01*
X151814502Y-88108117D02*
X152056046Y-87891795D01*
X151814502Y-96291882D02*
X151541176Y-96117434D01*
X152056046Y-87891795D02*
X152259460Y-87639284D01*
X152056046Y-96508204D02*
X151814502Y-96291882D01*
X152259460Y-87639284D02*
X152419397Y-87357222D01*
X152259460Y-96760715D02*
X152056046Y-96508204D01*
X152419397Y-87357222D02*
X153339034Y-85735364D01*
X152419397Y-97042777D02*
X152259460Y-96760715D01*
X153339034Y-85735364D02*
X154508665Y-84283428D01*
X153339034Y-98664635D02*
X152419397Y-97042777D01*
X154508665Y-84283428D02*
X155897546Y-83039576D01*
X154508665Y-100116571D02*
X153339034Y-98664635D01*
X155897546Y-83039576D02*
X157469170Y-82036504D01*
X155897546Y-101360423D02*
X154508665Y-100116571D01*
X157469170Y-82036504D02*
X159182227Y-81300576D01*
X157469170Y-102363495D02*
X155897546Y-101360423D01*
X159182227Y-81300576D02*
X160991692Y-80851137D01*
X159182227Y-103099423D02*
X157469170Y-102363495D01*
X160991692Y-80851137D02*
X162850000Y-80700000D01*
X160991692Y-103548862D02*
X159182227Y-103099423D01*
X162850000Y-80700000D02*
X164708309Y-80851137D01*
X162850000Y-103699999D02*
X160991692Y-103548862D01*
X164708309Y-80851137D02*
X166517774Y-81300576D01*
X164708309Y-103548862D02*
X162850000Y-103699999D01*
X166517774Y-81300576D02*
X168230831Y-82036504D01*
X166517774Y-103099423D02*
X164708309Y-103548862D01*
X168230831Y-82036504D02*
X169802455Y-83039576D01*
X168230831Y-102363495D02*
X166517774Y-103099423D01*
X169802455Y-83039576D02*
X171191336Y-84283428D01*
X169802455Y-101360423D02*
X168230831Y-102363495D01*
X171191336Y-84283428D02*
X172360967Y-85735364D01*
X171191336Y-100116571D02*
X169802455Y-101360423D01*
X172360967Y-85735364D02*
X173280604Y-87357222D01*
X172360967Y-98664635D02*
X171191336Y-100116571D01*
X173280604Y-87357222D02*
X173440541Y-87639284D01*
X173280604Y-97042777D02*
X172360967Y-98664635D01*
X173440541Y-87639284D02*
X173643955Y-87891795D01*
X173440541Y-96760715D02*
X173280604Y-97042777D01*
X173643955Y-87891795D02*
X173885499Y-88108117D01*
X173643955Y-96508204D02*
X173440541Y-96760715D01*
X173885499Y-88108117D02*
X174158825Y-88282565D01*
X173885499Y-96291882D02*
X173643955Y-96508204D01*
X174158825Y-88282565D02*
X174456748Y-88410552D01*
X174158825Y-96117434D02*
X173885499Y-96291882D01*
X174456748Y-88410552D02*
X174771438Y-88488715D01*
X174456748Y-95989447D02*
X174158825Y-96117434D01*
X174771438Y-88488715D02*
X175094622Y-88515000D01*
X174771438Y-95911284D02*
X174456748Y-95989447D01*
X175094622Y-88515000D02*
X177150000Y-88515000D01*
X175094622Y-95884999D02*
X174771438Y-95911284D01*
X176350000Y-90514950D02*
X176350000Y-93884949D01*
X176350000Y-93884949D02*
X177150000Y-93885050D01*
X177150000Y-90514950D02*
X176350000Y-90514950D01*
X177150000Y-95882793D02*
X175094622Y-95884999D01*
X177550000Y-88915000D02*
X177550000Y-90114950D01*
X177550000Y-94282843D02*
X177550000Y-95482793D01*
X148150000Y-88915000D02*
G75*
G02*
X148550000Y-88515000I399999J1D01*
G01*
X148150000Y-94284949D02*
G75*
G02*
X148550000Y-93884949I399999J1D01*
G01*
X148550000Y-90514950D02*
G75*
G02*
X148150000Y-90114950I-1J399999D01*
G01*
X148550000Y-95884899D02*
G75*
G02*
X148150000Y-95484899I-1J399999D01*
G01*
X177150000Y-88515000D02*
G75*
G02*
X177550000Y-88915000I0J-400000D01*
G01*
X177150000Y-93885050D02*
G75*
G02*
X177549950Y-94285050I0J-399950D01*
G01*
X177550000Y-90114950D02*
G75*
G02*
X177150000Y-90514950I-400000J0D01*
G01*
X177550000Y-95482793D02*
G75*
G02*
X177150000Y-95882800I-400000J-7D01*
G01*
%TD*%
M02*
